<svg data:image/svg+xml,%3Csvg xmlns='http://www.w3.org/2000/svg' viewBox='0 0 1600 900'> <path d="%3E%3Cpolygon fill='%23ea4a4a' points='957 450 539 900 1396 900'/%3E%3Cpolygon fill='%23fe9f64' points='957 450 872.9 900 1396 900'/%3E%3Cpolygon fill='%23cd4565' points='-60 900 398 662 816 900'/%3E%3Cpolygon fill='%23feaa74' points='337 900 398 662 816 900'/%3E%3Cpolygon fill='%23c65988' points='1203 546 1552 900 876 900'/%3E%3Cpolygon fill='%23fdbd92' points='1203 546 1552 900 1162 900'/%3E%3Cpolygon fill='%239f5e8c' points='641 695 886 900 367 900'/%3E%3Cpolygon fill='%23ffc7a1' points='587 900 641 695 886 900'/%3E%3Cpolygon fill='%23876791' points='1710 900 1401 632 1096 900'/%3E%3Cpolygon fill='%23f2c4a3' points='1710 900 1401 632 1365 900'/%3E%3Cpolygon fill='%23726d85' points='1210 900 971 687 725 900'/%3E%3Cpolygon fill='%23f0ceb6' points='943 900 1210 900 971 687'/%3E%3C/svg%3E" />
</svg>